<svg aria-hidden="true" style="position: absolute; width: 0; height: 0; overflow: hidden;" version="1.1" xmlns="http://www.w3.org/2000/svg" xmlns:xlink="http://www.w3.org/1999/xlink">
<defs>
<symbol id="icon-phone" viewBox="0 0 32 32">
<path d="M16 8.923c-3.908 0-7.077 3.168-7.077 7.077s3.168 7.077 7.077 7.077v0c3.908 0 7.077-3.168 7.077-7.077s-3.168-7.077-7.077-7.077v0zM16 21.231c-2.889 0-5.231-2.342-5.231-5.231s2.342-5.231 5.231-5.231c2.889 0 5.231 2.342 5.231 5.231v0c-0.009 2.885-2.346 5.222-5.23 5.231h-0.001zM22.769 0.923h-13.538c-4.588 0-8.308 3.719-8.308 8.308v0 13.538c0 4.588 3.719 8.308 8.308 8.308v0h13.538c4.588 0 8.308-3.719 8.308-8.308v0-13.538c0-4.588-3.719-8.308-8.308-8.308v0zM29.231 22.769c0 3.569-2.893 6.462-6.462 6.462v0h-13.538c-3.569 0-6.462-2.893-6.462-6.462v0-13.538c0-3.569 2.893-6.462 6.462-6.462v0h13.538c3.569 0 6.462 2.893 6.462 6.462v0 13.538zM25.538 8c0 0.85-0.689 1.538-1.538 1.538s-1.538-0.689-1.538-1.538v0c0-0.85 0.689-1.538 1.538-1.538s1.538 0.689 1.538 1.538v0z"></path>
</symbol>
<symbol id="icon-facebook" viewBox="0 0 19 32">
<path d="M17.641 1.245c-1.303-0.146-2.813-0.23-4.343-0.23-0.044 0-0.089 0-0.133 0l0.007-0c-4.948 0-8.022 3.151-8.022 8.224v3.445h-4.157c0 0 0 0 0 0-0.406 0-0.735 0.329-0.736 0.735v5.665c0.001 0.406 0.33 0.735 0.736 0.735 0 0 0 0 0 0h4.157v11.359c0.001 0.406 0.329 0.734 0.735 0.735h5.853c0 0 0 0 0 0 0.406 0 0.735-0.329 0.736-0.735v-11.36h4.143c0.372-0 0.68-0.277 0.729-0.636l0-0.004 0.732-5.664c0.004-0.029 0.006-0.063 0.006-0.097 0-0.405-0.329-0.734-0.734-0.734-0.001 0-0.002 0-0.003 0h-4.874v-2.881c0-1.428 0.287-2.024 2.071-2.024h3.001c0.406-0.001 0.734-0.329 0.735-0.735v-5.069c-0.001-0.372-0.277-0.679-0.636-0.728l-0.004-0zM16.809 6.306l-2.265 0.001c-3.174 0-3.542 1.995-3.542 3.495v3.619c0.001 0.406 0.329 0.734 0.735 0.735h4.776l-0.543 4.193h-4.232c-0.406 0.001-0.735 0.33-0.735 0.736 0 0 0 0 0 0v0 11.354h-4.382v-11.354c0 0 0 0 0 0 0-0.406-0.33-0.736-0.736-0.736-0 0-0.001 0-0.001 0h-4.153v-4.193h4.154c0 0 0 0 0 0 0.406 0 0.735-0.329 0.736-0.735v-4.182c0-4.228 2.45-6.753 6.551-6.753 1.485 0 2.825 0.082 3.637 0.152v3.668z"></path>
</symbol>
<symbol id="icon-instagram" viewBox="0 0 28 32">
<path d="M25.655 22.957l-0.173-0.216c-1.372-1.734-2.52-2.637-3.503-2.756-0.85-0.116-1.673 0.472-2.548 1.078l-0.935 0.584c-0.092 0.048-0.2 0.093-0.312 0.128l-0.014 0.004c-0.547 0.154-1.927 0.245-2.708-0.47-0.91-0.832-2.32-2.354-3.418-3.685-1.048-1.377-2.2-3.095-2.801-4.176-0.508-0.916-0.083-2.197 0.201-2.672 0.056-0.093 0.13-0.185 0.21-0.276l0.825-0.761c0.012-0.012 0.017-0.027 0.028-0.038 0.008-0.008 0.021-0.005 0.030-0.012 0.745-0.628 1.514-1.274 1.62-2.105 0.123-0.976-0.483-2.296-1.858-4.030l-0.168-0.215c-0.851-1.091-2.137-2.74-3.985-2.469-0.727 0.108-1.376 0.356-2.046 0.776-0.006 0.004-0.010 0.012-0.016 0.016-0.005 0.004-0.012 0.004-0.017 0.008l-0.932 0.69c-0.010 0.006-0.015 0.018-0.024 0.026-0.007 0.006-0.017 0.008-0.025 0.014-0.127 0.107-0.232 0.198-0.336 0.291l0.013-0.011c-0.945 0.843-2.992 3.29-1.596 7.815 0.901 2.923 2.76 6.333 5.388 9.883l-0.025 0.021 1.449 1.805 0.012-0.009c2.85 3.37 5.75 5.976 8.407 7.553 1.773 1.054 3.322 1.402 4.597 1.402 1.677 0 2.879-0.603 3.481-0.995l0.379-0.253c0.043-0.030 0.073-0.071 0.104-0.108l0.825-0.622c0.010-0.008 0.015-0.018 0.024-0.026 0.004-0.004 0.010-0.003 0.016-0.007 0.587-0.536 0.994-1.097 1.276-1.763 0.732-1.705-0.578-3.338-1.445-4.42zM26.12 26.959c-0.22 0.517-0.541 0.957-1.005 1.384l-1.228 0.924c-1.112 0.722-3.49 1.616-6.943-0.435-2.657-1.577-5.582-4.244-8.461-7.712l-0.779-0.984c-2.71-3.595-4.617-7.037-5.517-9.955-1.17-3.793 0.304-5.828 1.29-6.706 0.1-0.091 0.2-0.175 0.3-0.259l0.003-0.004 0.895-0.663c0.463-0.309 1.013-0.529 1.605-0.621l0.023-0.003c1.239-0.186 2.247 1.12 2.987 2.070l0.173 0.22c1.536 1.937 1.684 2.858 1.636 3.234-0.053 0.418-0.688 0.952-1.248 1.423l-0.079 0.067-0.006 0.009-0.012 0.007-0.852 0.788c-0.006 0.005-0.008 0.012-0.014 0.018s-0.016 0.010-0.021 0.016c-0.121 0.133-0.232 0.28-0.33 0.437l-0.007 0.013c-0.48 0.801-0.931 2.457-0.218 3.738 0.623 1.12 1.808 2.89 2.898 4.319 1.138 1.381 2.59 2.95 3.532 3.81 0.705 0.643 1.686 0.86 2.536 0.86 0.454 0 0.872-0.063 1.188-0.153 0.166-0.048 0.338-0.117 0.516-0.204 0.010-0.005 0.016-0.014 0.026-0.021 0.006-0.003 0.014-0.001 0.019-0.005l0.99-0.619c0.031-0.021 0.053-0.050 0.080-0.076l0.011 0.013c0.61-0.422 1.304-0.918 1.739-0.846 0.385 0.046 1.26 0.417 2.799 2.36l0.177 0.222c0.75 0.935 1.776 2.215 1.297 3.334z"></path>
</symbol>
<symbol id="icon-menu" viewBox="0 0 46 32">
<path d="M45.714 29.726c0 1.257-1.019 2.274-2.274 2.274h-18.309c-1.256 0-2.274-1.018-2.274-2.274s1.018-2.274 2.274-2.274h18.309c1.257 0 2.274 1.017 2.274 2.274zM45.714 16c0 1.257-1.019 2.274-2.274 2.274h-41.166c-1.256 0-2.274-1.018-2.274-2.274s1.018-2.274 2.274-2.274h41.166c1.257 0 2.274 1.019 2.274 2.274zM43.44 4.549c1.256 0 2.274-1.018 2.274-2.274s-1.018-2.274-2.274-2.274v0h-27.451c-1.256 0-2.274 1.018-2.274 2.274s1.018 2.274 2.274 2.274v0h27.451z"></path>
</symbol>
</defs>
</svg>
